<svg width="275" height="254" viewBox="0 0 275 254" fill="none" xmlns="http://www.w3.org/2000/svg">
<path d="M7 232.5C8.5 231 31.5 216 34 214.5H130C130 214.5 137.5 214 145 210C152.5 206 157 201.5 157 201.5L267 72.5L262 200.5C262 200.5 263.5 220.5 250.5 236C237.5 251.5 221.5 253.5 221.5 253.5L38.5 253C38.5 253 28 251 20.5 246C13 241 7 232.5 7 232.5Z" fill="url(#paint0_linear_43_11)"/>
<path d="M34 214.5L7.5 232.5C7.5 232.5 3.96409 228.524 2.5 225.5C0.828079 222.047 0 216 0 216V32C0 32 4.07474 18.4145 10 12C16.4092 5.06165 31 0 31 0H104C104 0 112.5 1.5 117 5C121.5 8.5 138 20 138 20C138 20 143.056 23.0004 146.5 24.5C149.727 25.9054 155 27.5 155 27.5H226.5C226.5 27.5 231.328 27.6642 234 29C235.991 29.9956 238.5 32.5 238.5 32.5C238.5 32.5 209.5 49 208 50C206.5 51 205.5 51 203.5 51H64.5C64.5 51 57.5835 52.5904 53.5 54.5C49.5252 56.3587 47.2557 57.5581 44 60.5C38.2853 65.6641 34 77.5 34 77.5L16 198C16 198 17.8911 205.189 21 208.5C24.8275 212.576 34 214.5 34 214.5Z" fill="#3455FF"/>
<path d="M129 178L102 149L261.5 35.5C261.5 35.5 268.5 29.5001 273 33C277.5 36.5 271.5 43 271.5 43L149 178C149 178 144 182 139 181.5C134 181 129 178 129 178Z" fill="url(#paint1_linear_43_11)"/>
<path d="M136 124.5L102 149L60.5 102.5C60.5 102.5 58.2642 96.5198 59.5 93C60.6444 89.7405 65.5 86.5 65.5 86.5C65.5 86.5 68.7429 84.6871 71 84C73.6417 83.1958 78 83 78 83C78 83 84.5428 83.276 88.5 84.5C92.0048 85.584 97 88.5 97 88.5L136 124.5Z" fill="url(#paint2_linear_43_11)"/>
<defs>
<linearGradient id="paint0_linear_43_11" x1="137" y1="72.5" x2="137" y2="253.5" gradientUnits="userSpaceOnUse">
<stop stop-color="#FF3FA4"/>
<stop offset="1" stop-color="#7A2CFF"/>
</linearGradient>
<linearGradient id="paint1_linear_43_11" x1="238.468" y1="31.9038" x2="138.205" y2="181.543" gradientUnits="userSpaceOnUse">
<stop stop-color="#6EECFF"/>
<stop offset="1" stop-color="#FF52C9"/>
</linearGradient>
<linearGradient id="paint2_linear_43_11" x1="97.5638" y1="83" x2="97.5638" y2="149" gradientUnits="userSpaceOnUse">
<stop stop-color="#7DF3FF"/>
<stop offset="1" stop-color="#1DA8FF"/>
</linearGradient>
</defs>
</svg>
