<svg width="350" height="320" viewBox="0 0 350 320" fill="none" xmlns="http://www.w3.org/2000/svg">
<path d="M8.91968 293.491C10.831 291.598 40.1386 272.663 43.3242 270.769H165.651C165.651 270.769 175.208 270.138 184.765 265.089C194.322 260.039 200.056 254.359 200.056 254.359L340.222 91.5188L333.851 253.097C333.851 253.097 335.762 278.343 319.197 297.909C302.632 317.475 282.244 320 282.244 320L49.0583 319.369C49.0583 319.369 35.6787 316.844 26.1219 310.533C16.5651 304.221 8.91968 293.491 8.91968 293.491Z" fill="url(#paint0_linear_43_11)"/>
<path d="M43.3242 270.769L9.5568 293.491C9.5568 293.491 5.0512 288.472 3.1856 284.655C1.05517 280.296 0 272.663 0 272.663V40.3945C0 40.3945 5.19219 23.2451 12.7424 15.1479C20.9092 6.38946 39.5014 0 39.5014 0H132.521C132.521 0 143.352 1.89349 149.086 6.31164C154.82 10.7298 175.845 25.2465 175.845 25.2465C175.845 25.2465 182.288 29.0341 186.676 30.927C190.789 32.7011 197.507 34.714 197.507 34.714H288.615C288.615 34.714 294.768 34.9213 298.172 36.6075C300.71 37.8643 303.906 41.0256 303.906 41.0256C303.906 41.0256 266.953 61.854 265.042 63.1164C263.131 64.3787 261.856 64.3787 259.308 64.3787H82.1885C82.1885 64.3787 73.3752 66.3863 68.1718 68.7968C63.1069 71.1432 60.215 72.6571 56.0666 76.3708C48.7846 82.8896 43.3242 97.8304 43.3242 97.8304L20.3878 249.941C20.3878 249.941 22.7975 259.016 26.759 263.195C31.6362 268.341 43.3242 270.769 43.3242 270.769Z" fill="#1476FF"/>
<path d="M164.377 224.694L129.972 188.087L333.214 44.8126C333.214 44.8126 342.133 37.2387 347.867 41.6568C353.602 46.0748 345.956 54.28 345.956 54.28L189.862 224.694C189.862 224.694 183.491 229.743 177.119 229.112C170.748 228.481 164.377 224.694 164.377 224.694Z" fill="url(#paint1_linear_43_11)"/>
<path d="M173.297 157.16L129.972 188.087L77.0915 129.389C77.0915 129.389 74.2425 121.84 75.8173 117.396C77.2755 113.282 83.4627 109.191 83.4627 109.191C83.4627 109.191 87.5949 106.903 90.471 106.036C93.8372 105.02 99.3907 104.773 99.3907 104.773C99.3907 104.773 107.728 105.122 112.77 106.667C117.236 108.035 123.601 111.716 123.601 111.716L173.297 157.16Z" fill="url(#paint2_linear_43_11)"/>
<defs>
<linearGradient id="paint0_linear_43_11" x1="174.571" y1="91.5188" x2="174.571" y2="320" gradientUnits="userSpaceOnUse">
<stop stop-color="#06FFB4"/>
<stop offset="1" stop-color="#2BB48B"/>
</linearGradient>
<linearGradient id="paint1_linear_43_11" x1="303.866" y1="40.2729" x2="177.757" y2="230.262" gradientUnits="userSpaceOnUse">
<stop stop-color="#00FFD0"/>
<stop offset="1" stop-color="#00997D"/>
</linearGradient>
<linearGradient id="paint2_linear_43_11" x1="124.32" y1="104.773" x2="124.32" y2="188.087" gradientUnits="userSpaceOnUse">
<stop stop-color="#00D5AB"/>
<stop offset="1" stop-color="#006F59"/>
</linearGradient>
</defs>
</svg>
